<svg width="65" height="65" viewBox="0 0 65 65" fill="none" xmlns="http://www.w3.org/2000/svg">
<path d="M64.9444 41.2276C64.8584 42.3451 64.7441 43.3695 64.9245 44.4064C65.0771 45.2834 64.7001 46.1307 64.8324 47.0567C65.0356 48.4786 64.9347 49.9457 64.9422 51.3937C64.9529 53.4706 65.0878 55.5603 64.9044 57.6209C64.724 59.6465 64.9703 61.6426 64.9418 63.6515C64.9244 64.8773 64.7872 64.9997 63.5592 64.9997C42.8163 65.0001 22.0734 65.0002 1.33055 64.9995C0.0203802 64.9995 0.0180584 64.9966 0.0180279 63.6578C0.0175555 42.8322 0.0228768 22.0066 3.60746e-06 1.18103C-0.000970305 0.294592 0.194796 -0.00127927 1.14221 4.15442e-06C21.9846 0.0282534 42.8271 0.0253139 63.6695 0.00718411C64.4477 0.00650742 64.7099 0.164718 64.7832 1.02431C64.959 3.08544 64.5766 5.14384 64.7866 7.17775C64.9686 8.94199 64.8025 10.6936 64.8716 12.4496C64.9175 13.6161 64.6379 14.8316 64.7719 16.0046C65.0035 18.0322 64.7564 20.0568 64.862 22.0878C64.9568 23.9121 64.8463 25.7941 64.8392 27.6378C64.8285 30.3696 64.6825 33.1058 64.8773 35.8523C65.0006 37.5906 64.9248 39.3755 64.9444 41.2276Z" fill="#F8F9F7"/>
</svg>
